<?xml version="1.0" encoding="iso-8859-1"?>
<!-- Generator: Adobe Illustrator 21.0.2, SVG Export Plug-In . SVG Version: 6.00 Build 0)  -->
<svg xmlns="http://www.w3.org/2000/svg" xmlns:xlink="http://www.w3.org/1999/xlink" version="1.1" id="Layer_1" x="0px" y="0px" viewBox="0 0 40 40" style="enable-background:new 0 0 40 40;" xml:space="preserve">
<path style="fill:#4788C7;" d="M16,11h-2V8.5C14,8.224,14.224,8,14.5,8h1C15.776,8,16,8.224,16,8.5V11z"/>
<path style="fill:#4788C7;" d="M34,11h-2V8.5C32,8.224,32.224,8,32.5,8h1C33.776,8,34,8.224,34,8.5V11z"/>
<g>
	<g>
		<path style="fill:#4788C7;" d="M26.667,7C26.85,7,27,7.15,27,7.333V13h-6V7.333C21,7.15,21.15,7,21.333,7H26.667 M26.667,6h-5.333    C20.597,6,20,6.597,20,7.333V14h8V7.333C28,6.597,27.403,6,26.667,6L26.667,6z"/>
	</g>
</g>
<g>
	<path style="fill:#DFF0FE;" d="M12,29.5c-0.827,0-1.5-0.673-1.5-1.5V11c0-0.827,0.673-1.5,1.5-1.5h24c0.827,0,1.5,0.673,1.5,1.5v17   c0,0.827-0.673,1.5-1.5,1.5H12z"/>
	<g>
		<path style="fill:#4788C7;" d="M36,10c0.551,0,1,0.449,1,1v17c0,0.551-0.449,1-1,1H12c-0.551,0-1-0.449-1-1V11    c0-0.551,0.449-1,1-1H36 M36,9H12c-1.105,0-2,0.895-2,2v17c0,1.105,0.895,2,2,2h24c1.105,0,2-0.895,2-2V11C38,9.895,37.105,9,36,9    L36,9z"/>
	</g>
</g>
<path style="fill:none;stroke:#4788C7;stroke-linecap:round;stroke-miterlimit:10;" d="M39.5,29.5h-30c-1.657,0-3-1.343-3-3v-17  c0-1.657-1.343-3-3-3H2"/>
<g>
	<circle style="fill:#B6DCFE;" cx="13.5" cy="31.5" r="2"/>
	<path style="fill:#4788C7;" d="M13.5,30c0.827,0,1.5,0.673,1.5,1.5c0,0.827-0.673,1.5-1.5,1.5S12,32.327,12,31.5   C12,30.673,12.673,30,13.5,30 M13.5,29c-1.381,0-2.5,1.119-2.5,2.5s1.119,2.5,2.5,2.5s2.5-1.119,2.5-2.5S14.881,29,13.5,29L13.5,29   z"/>
</g>
<g>
	<circle style="fill:#B6DCFE;" cx="35.5" cy="31.5" r="2"/>
	<path style="fill:#4788C7;" d="M35.5,30c0.827,0,1.5,0.673,1.5,1.5c0,0.827-0.673,1.5-1.5,1.5S34,32.327,34,31.5   C34,30.673,34.673,30,35.5,30 M35.5,29c-1.381,0-2.5,1.119-2.5,2.5s1.119,2.5,2.5,2.5s2.5-1.119,2.5-2.5S36.881,29,35.5,29L35.5,29   z"/>
</g>
<g>
	<circle style="fill:#B6DCFE;" cx="2" cy="8" r="1.5"/>
	<path style="fill:#4788C7;" d="M2,7c0.551,0,1,0.449,1,1S2.551,9,2,9S1,8.551,1,8S1.449,7,2,7 M2,6C0.895,6,0,6.895,0,8   s0.895,2,2,2s2-0.895,2-2S3.105,6,2,6L2,6z"/>
</g>
<rect x="14" y="10" style="fill:#98CCFD;" width="2" height="19"/>
<rect x="32" y="10" style="fill:#98CCFD;" width="2" height="19"/>
</svg>
